<svg width="500" height="500" viewBox="0 0 500 500" fill="none" xmlns="http://www.w3.org/2000/svg">
<rect width="500" height="500" rx="250" fill="#00ACCC"/>
<path d="M230.39 250.046C230.574 244.709 230.236 240.37 227.424 235.83C224.612 231.29 220.518 227.686 215.657 225.473C210.797 223.26 205.39 222.539 200.12 223.399C194.85 224.259 189.953 226.663 186.049 230.306C182.144 233.95 179.408 238.669 178.186 243.867C176.964 249.066 177.311 254.51 179.183 259.511C181.055 264.512 184.368 268.846 188.703 271.964C193.038 275.083 198.201 276.846 203.537 277.03L213.11 277.03L213.11 271.646L213.11 265.166L203.39 265.166C200.293 265.059 197.837 264.573 195.322 262.764C192.806 260.954 190.884 258.44 189.798 255.538C188.712 252.636 188.511 249.477 189.22 246.461C189.929 243.445 191.516 240.707 193.781 238.593C196.047 236.479 198.888 235.084 201.946 234.585C205.004 234.086 208.13 234.546 210.95 235.83C213.77 237.114 214.895 237.63 216.526 240.264C218.158 242.898 218.617 243.71 218.51 246.806L218.51 265.27C218.51 266.627 218.785 267.969 219.32 269.216C219.857 270.47 220.573 271.638 221.446 272.686L221.48 272.726L221.583 272.851C222.41 273.842 223.375 274.71 224.45 275.426C225.527 276.144 226.682 276.756 227.959 276.968C228.085 276.989 228.16 277 228.16 277L230.39 277.03L230.39 250.046Z" fill="white"/>
<path d="M289.79 250.046C289.974 244.709 289.636 240.37 286.824 235.83C284.012 231.29 279.917 227.686 275.057 225.473C270.197 223.26 264.79 222.539 259.52 223.399C254.25 224.259 249.353 226.663 245.448 230.306C241.544 233.95 238.808 238.669 237.586 243.867C236.364 249.066 236.711 254.51 238.583 259.511C240.455 264.512 243.768 268.846 248.103 271.964C252.438 275.083 257.6 276.846 262.937 277.03L272.51 277.03L272.51 271.646L272.51 265.166L262.79 265.166C259.693 265.059 257.237 264.573 254.722 262.764C252.206 260.954 250.284 258.44 249.198 255.538C248.112 252.636 247.911 249.477 248.62 246.461C249.329 243.445 250.916 240.707 253.181 238.593C255.447 236.479 258.288 235.084 261.346 234.585C264.404 234.086 267.53 234.546 270.35 235.83C273.17 237.114 274.295 237.63 275.926 240.264C277.558 242.898 278.017 243.71 277.91 246.806L277.91 265.27C277.91 266.627 278.185 267.969 278.72 269.216C279.257 270.47 279.973 271.638 280.846 272.686L280.88 272.726L280.983 272.851C281.81 273.842 282.775 274.71 283.85 275.426C284.926 276.144 286.082 276.756 287.359 276.968C287.485 276.989 287.56 277 287.56 277L289.79 277.03L289.79 250.046Z" fill="white"/>
<path d="M116.99 250.046C117.174 244.709 116.836 240.37 114.024 235.83C111.212 231.29 107.117 227.686 102.257 225.473C97.3973 223.26 91.9902 222.539 86.7199 223.399C81.4495 224.259 76.5527 226.663 72.6485 230.306C68.7444 233.95 66.0083 238.669 64.7862 243.867C63.5642 249.066 63.9111 254.51 65.7831 259.511C67.6551 264.512 70.9681 268.846 75.3031 271.964C79.6381 275.083 84.8005 276.846 90.1374 277.03L99.7098 277.03L99.7098 271.646L99.7098 265.166L89.9898 265.166C86.8932 265.059 84.4369 264.573 81.9216 262.764C79.4064 260.954 77.4841 258.44 76.398 255.538C75.3118 252.636 75.1105 249.477 75.8196 246.461C76.5286 243.445 78.1161 240.707 80.3814 238.593C82.6467 236.479 85.4879 235.084 88.5459 234.585C91.6038 234.086 94.7299 234.546 97.5498 235.83C100.37 237.114 101.495 237.63 103.126 240.264C104.758 242.898 105.217 243.71 105.11 246.806L105.11 265.27C105.11 266.627 105.385 267.969 105.92 269.216C106.457 270.47 107.173 271.638 108.046 272.686L108.08 272.726L108.183 272.851C109.01 273.842 109.975 274.71 111.05 275.426C112.127 276.144 113.282 276.756 114.559 276.968C114.685 276.989 114.76 277 114.76 277L116.99 277.03L116.99 250.046Z" fill="white"/>
<path d="M118 224.08H129.88L142.715 262.584C143.138 263.854 144.084 264.882 145.314 265.409C146.493 265.914 147.842 265.908 149.021 265.403C150.235 264.882 151.194 263.874 151.642 262.631L165.52 224.08H177.4L162.585 265.561C161.673 268.115 160.205 270.435 158.288 272.353L157.965 272.675C156.888 273.752 155.656 274.662 154.309 275.375C149.837 277.743 144.483 277.743 140.011 275.375C138.664 274.662 137.432 273.752 136.355 272.675L136.089 272.409C134.136 270.457 132.665 268.076 131.792 265.457L118 224.08Z" fill="white"/>
<g clip-path="url(#clip0_1530_250)">
<path d="M298.36 249.579C298.36 246.269 298.722 242.97 299.44 239.74L299.673 239.04C300.59 236.29 302.001 233.73 303.837 231.486L304.175 231.073C305.333 229.658 306.68 228.408 308.178 227.36C310.254 225.907 312.587 224.862 315.054 224.281L315.301 224.223C318.714 223.42 322.273 223.473 325.661 224.376L325.923 224.446C327.701 224.92 329.413 225.612 331.022 226.506L333.46 227.86L337.24 230.56L340.435 228.103C342.954 226.164 345.868 224.803 348.971 224.113L349.105 224.083C352.311 223.371 355.639 223.415 358.825 224.211L358.958 224.245C361.379 224.85 363.668 225.894 365.712 227.324C367.243 228.396 368.62 229.674 369.804 231.12L371.573 233.283C372.44 234.343 373.162 235.514 373.718 236.766C374.59 238.727 375.04 240.849 375.04 242.995V244.6V277H363.16V246.625C363.16 245.282 362.973 243.945 362.604 242.653L362.446 242.101C362.203 241.251 361.85 240.436 361.395 239.678L361.3 239.52C360.744 238.594 360.028 237.775 359.185 237.1L359.027 236.974C358.191 236.305 357.23 235.808 356.2 235.514C354.749 235.1 353.211 235.1 351.76 235.514L351.325 235.639C350.578 235.852 349.859 236.155 349.184 236.54L348.174 237.118C347.015 237.78 345.992 238.655 345.158 239.697C344.562 240.442 344.069 241.265 343.694 242.142L343.615 242.325C342.972 243.826 342.64 245.442 342.64 247.075V277H330.76V244.6V243.848C330.76 242.918 330.583 241.996 330.237 241.133C329.87 240.214 329.319 239.379 328.619 238.679L328.153 238.213C326.684 236.744 324.813 235.743 322.776 235.335L322.552 235.29C321.199 235.02 319.804 235.035 318.458 235.334C316.617 235.743 314.932 236.668 313.599 238.001L313.552 238.048C312.439 239.161 311.601 240.517 311.103 242.011L310.9 242.62C310.463 243.931 310.24 245.305 310.24 246.687V277H298.36V249.579Z" fill="white"/>
</g>
<g clip-path="url(#clip1_1530_250)">
<path d="M376.12 249.579C376.12 246.269 375.758 242.97 375.04 239.74L374.807 239.04C373.89 236.29 372.479 233.73 370.643 231.486L370.305 231.073C369.147 229.658 367.8 228.408 366.302 227.36C364.226 225.907 361.893 224.862 359.426 224.281L359.179 224.223C355.766 223.42 352.207 223.473 348.819 224.376L348.557 224.446C346.779 224.92 345.066 225.612 343.458 226.506L341.02 227.86L337.24 230.56L334.045 228.103C331.526 226.164 328.612 224.803 325.509 224.113L325.375 224.083C322.169 223.371 318.841 223.415 315.655 224.211L315.522 224.245C313.101 224.85 310.812 225.894 308.768 227.324C307.237 228.396 305.86 229.674 304.676 231.12L302.907 233.283C302.039 234.343 301.318 235.514 300.762 236.766C299.89 238.727 299.44 240.849 299.44 242.995V244.6V277H311.32V246.625C311.32 245.282 311.507 243.945 311.876 242.653L312.034 242.101C312.277 241.251 312.63 240.436 313.085 239.678L313.18 239.52C313.736 238.594 314.452 237.775 315.295 237.1L315.453 236.974C316.289 236.305 317.25 235.808 318.28 235.514C319.731 235.1 321.269 235.1 322.72 235.514L323.155 235.639C323.902 235.852 324.621 236.155 325.296 236.54L326.306 237.118C327.465 237.78 328.488 238.655 329.322 239.697C329.918 240.442 330.411 241.265 330.786 242.142L330.865 242.325C331.508 243.826 331.84 245.442 331.84 247.075V277H343.72V244.6V243.848C343.72 242.918 343.897 241.996 344.243 241.133C344.61 240.214 345.161 239.379 345.861 238.679L346.327 238.213C347.796 236.744 349.667 235.743 351.704 235.335L351.928 235.29C353.281 235.02 354.676 235.035 356.022 235.334C357.863 235.743 359.548 236.668 360.881 238.001L360.928 238.048C362.041 239.161 362.879 240.517 363.377 242.011L363.58 242.62C364.017 243.931 364.24 245.305 364.24 246.687V277H376.12V249.579Z" fill="white"/>
</g>
<path d="M436.6 250C436.6 264.912 424.512 277 409.6 277C394.688 277 382.6 264.912 382.6 250C382.6 235.088 394.688 223 409.6 223C424.512 223 436.6 235.088 436.6 250ZM393.831 250C393.831 258.709 400.891 265.769 409.6 265.769C418.309 265.769 425.369 258.709 425.369 250C425.369 241.291 418.309 234.231 409.6 234.231C400.891 234.231 393.831 241.291 393.831 250Z" fill="white"/>
<defs>
<clipPath id="clip0_1530_250">
<rect width="38.88" height="54" fill="white" transform="translate(298.36 223)"/>
</clipPath>
<clipPath id="clip1_1530_250">
<rect width="38.88" height="54" fill="white" transform="matrix(-1 0 0 1 376.12 223)"/>
</clipPath>
</defs>
</svg>
